<svg width="33" height="33" viewBox="0 0 33 33" fill="none" xmlns="http://www.w3.org/2000/svg">
<path d="M5.3578 18.754C5.10431 18.7549 4.85578 18.6838 4.64107 18.5491C4.42637 18.4143 4.25432 18.2214 4.1449 17.9927C4.03547 17.764 3.99318 17.509 4.02293 17.2573C4.05267 17.0055 4.15324 16.7674 4.31294 16.5705L17.5746 2.907C17.6741 2.79217 17.8097 2.71458 17.9591 2.68695C18.1084 2.65932 18.2628 2.68331 18.3968 2.75496C18.5307 2.82662 18.6363 2.94169 18.6963 3.08128C18.7562 3.22088 18.7669 3.37671 18.7267 3.5232L16.1547 11.5874C16.0789 11.7903 16.0534 12.0087 16.0805 12.2237C16.1076 12.4387 16.1864 12.6439 16.3102 12.8217C16.434 12.9995 16.5991 13.1446 16.7914 13.2446C16.9836 13.3446 17.1972 13.3965 17.4139 13.3958H26.7908C27.0443 13.3949 27.2929 13.466 27.5076 13.6008C27.7223 13.7355 27.8943 13.9285 28.0037 14.1571C28.1132 14.3858 28.1555 14.6408 28.1257 14.8925C28.096 15.1443 27.9954 15.3824 27.8357 15.5793L14.574 29.2428C14.4745 29.3576 14.339 29.4352 14.1896 29.4629C14.0402 29.4905 13.8858 29.4665 13.7519 29.3949C13.6179 29.3232 13.5123 29.2081 13.4523 29.0685C13.3924 28.9289 13.3817 28.7731 13.422 28.6266L15.9939 20.5625C16.0698 20.3595 16.0953 20.1411 16.0682 19.9261C16.0411 19.7112 15.9622 19.506 15.8384 19.3281C15.7146 19.1503 15.5495 19.0052 15.3573 18.9052C15.1651 18.8052 14.9514 18.7533 14.7348 18.754H5.3578Z" fill="#5CFF85" stroke="#5CFF85" stroke-width="2.67913" stroke-linecap="round" stroke-linejoin="round"/>
</svg>
