<svg width="28" height="28" viewBox="0 0 28 28" fill="none" xmlns="http://www.w3.org/2000/svg">
<path d="M3.49096 19.0655C3.6625 19.4982 3.7007 19.9724 3.60062 20.427L2.35812 24.2653C2.31809 24.46 2.32844 24.6616 2.3882 24.8511C2.44795 25.0407 2.55513 25.2118 2.69957 25.3483C2.84401 25.4848 3.02092 25.5821 3.21352 25.6311C3.40613 25.68 3.60805 25.6789 3.80012 25.628L7.78196 24.4636C8.21096 24.3785 8.65524 24.4157 9.06412 24.571C11.5554 25.7344 14.3776 25.9805 17.0326 25.266C19.6877 24.5514 22.0051 22.9221 23.5759 20.6654C25.1468 18.4087 25.8701 15.6698 25.6183 12.9318C25.3665 10.1938 24.1558 7.63269 22.1997 5.70037C20.2436 3.76805 17.6679 2.58868 14.9271 2.37035C12.1862 2.15202 9.45628 2.90875 7.21897 4.50703C4.98166 6.10532 3.38074 8.44244 2.69867 11.106C2.01659 13.7697 2.29719 16.5886 3.49096 19.0655Z" stroke="#F9F8FF" stroke-width="2.33333" stroke-linecap="round" stroke-linejoin="round"/>
</svg>
