<svg width="24" height="24" viewBox="0 0 24 24" fill="none" xmlns="http://www.w3.org/2000/svg">
<path d="M4.00048 14.0002C3.81125 14.0008 3.62571 13.9477 3.46543 13.8471C3.30516 13.7465 3.17671 13.6025 3.09503 13.4318C3.01335 13.2611 2.98177 13.0707 3.00398 12.8828C3.02619 12.6949 3.10126 12.5171 3.22048 12.3702L13.1205 2.17016C13.1947 2.08444 13.2959 2.02652 13.4075 2.0059C13.519 1.98527 13.6342 2.00318 13.7342 2.05667C13.8342 2.11016 13.9131 2.19606 13.9578 2.30027C14.0026 2.40448 14.0106 2.52081 13.9805 2.63016L12.0605 8.65016C12.0039 8.80169 11.9849 8.96468 12.0051 9.12517C12.0253 9.28566 12.0841 9.43884 12.1766 9.57159C12.269 9.70434 12.3923 9.81268 12.5358 9.88732C12.6793 9.96197 12.8387 10.0007 13.0005 10.0002H20.0005C20.1897 9.99952 20.3752 10.0526 20.5355 10.1532C20.6958 10.2538 20.8242 10.3978 20.9059 10.5685C20.9876 10.7392 21.0192 10.9296 20.997 11.1175C20.9748 11.3054 20.8997 11.4832 20.7805 11.6302L10.8805 21.8302C10.8062 21.9159 10.705 21.9738 10.5935 21.9944C10.482 22.0151 10.3668 21.9972 10.2668 21.9437C10.1667 21.8902 10.0879 21.8043 10.0431 21.7001C9.99839 21.5958 9.9904 21.4795 10.0205 21.3702L11.9405 15.3502C11.9971 15.1986 12.0161 15.0356 11.9959 14.8752C11.9757 14.7147 11.9168 14.5615 11.8244 14.4287C11.732 14.296 11.6087 14.1876 11.4652 14.113C11.3217 14.0384 11.1622 13.9996 11.0005 14.0002H4.00048Z" fill="#5CFF85" stroke="#5CFF85" stroke-width="2" stroke-linecap="round" stroke-linejoin="round"/>
</svg>
