<svg width="65" height="66" viewBox="0 0 65 66" fill="none" xmlns="http://www.w3.org/2000/svg">
<path d="M30.0172 7.66727C30.1339 7.04224 30.4656 6.47772 30.9547 6.07149C31.4439 5.66525 32.0597 5.44287 32.6955 5.44287C33.3313 5.44287 33.9472 5.66525 34.4363 6.07149C34.9254 6.47772 35.2571 7.04224 35.3738 7.66727L38.2375 22.8109C38.4409 23.8876 38.9641 24.8779 39.7388 25.6527C40.5136 26.4274 41.5039 26.9507 42.5806 27.154L57.7242 30.0177C58.3493 30.1344 58.9138 30.4661 59.32 30.9552C59.7263 31.4443 59.9486 32.0602 59.9486 32.696C59.9486 33.3318 59.7263 33.9476 59.32 34.4368C58.9138 34.9259 58.3493 35.2576 57.7242 35.3743L42.5806 38.238C41.5039 38.4413 40.5136 38.9646 39.7388 39.7393C38.9641 40.5141 38.4409 41.5044 38.2375 42.5811L35.3738 57.7247C35.2571 58.3498 34.9254 58.9143 34.4363 59.3205C33.9472 59.7267 33.3313 59.9491 32.6955 59.9491C32.0597 59.9491 31.4439 59.7267 30.9547 59.3205C30.4656 58.9143 30.1339 58.3498 30.0172 57.7247L27.1535 42.5811C26.9502 41.5044 26.4269 40.5141 25.6522 39.7393C24.8774 38.9646 23.8871 38.4413 22.8104 38.238L7.66678 35.3743C7.04175 35.2576 6.47724 34.9259 6.071 34.4368C5.66476 33.9476 5.44238 33.3318 5.44238 32.696C5.44238 32.0602 5.66476 31.4443 6.071 30.9552C6.47724 30.4661 7.04175 30.1344 7.66678 30.0177L22.8104 27.154C23.8871 26.9507 24.8774 26.4274 25.6522 25.6527C26.4269 24.8779 26.9502 23.8876 27.1535 22.8109L30.0172 7.66727Z" fill="#5CFF85" stroke="#5CFF85" stroke-width="5.44932" stroke-linecap="round" stroke-linejoin="round"/>
<path d="M54.4932 5.44922V16.3479V5.44922Z" fill="#5CFF85"/>
<path d="M54.4932 5.44922V16.3479" stroke="#5CFF85" stroke-width="5.44932" stroke-linecap="round" stroke-linejoin="round"/>
<path d="M59.9426 10.8984H49.0439H59.9426Z" fill="#5CFF85"/>
<path d="M59.9426 10.8984H49.0439" stroke="#5CFF85" stroke-width="5.44932" stroke-linecap="round" stroke-linejoin="round"/>
<path d="M10.8985 59.9426C13.9081 59.9426 16.3479 57.5028 16.3479 54.4933C16.3479 51.4837 13.9081 49.0439 10.8985 49.0439C7.88896 49.0439 5.44922 51.4837 5.44922 54.4933C5.44922 57.5028 7.88896 59.9426 10.8985 59.9426Z" fill="#5CFF85" stroke="#5CFF85" stroke-width="5.44932" stroke-linecap="round" stroke-linejoin="round"/>
</svg>
